<svg width="244" height="91" viewBox="0 0 244 91" fill="none" xmlns="http://www.w3.org/2000/svg">
<g clip-path="url(#clip0_10_616)">
<path d="M24.3491 70.8149L6.68554 59.8323V70.8149H-7.62939e-05V40.6128H23.6398C32.0964 40.6128 35.5376 42.4432 35.5376 49.6872V51.7967C35.5376 58.789 31.7761 60.6057 23.5437 60.6057H18.2401L35.9449 70.8333L24.3491 70.8149ZM28.8199 50.0487C28.8199 46.818 27.6256 46.2871 23.196 46.2871H6.68554V55.4942H23.196C27.5341 55.4942 28.8199 54.9634 28.8199 51.6869V50.0487Z" fill="white"/>
<path d="M50.6432 70.8153C41.7428 70.8153 39.1344 68.0697 39.1344 60.4551V57.2244C39.1344 49.564 41.7428 46.8184 50.6432 46.8184H58.6559C67.5975 46.8184 70.2104 49.564 70.2104 57.2656V60.4688C70.2104 68.0834 67.5975 70.8291 58.6559 70.8291L50.6432 70.8153ZM63.6118 57.444C63.6118 53.3713 62.5501 52.4836 57.7727 52.4836H51.5264C46.8359 52.4836 45.7285 53.3713 45.7285 57.444V60.2766C45.7285 64.2624 46.8359 65.2371 51.5264 65.2371H57.7727C62.5501 65.2371 63.6118 64.2624 63.6118 60.2766V57.444Z" fill="white"/>
<path d="M96.1522 69.2183C95.1775 70.5499 93.9831 71.4789 91.6356 71.4789C89.2011 71.4789 88.0525 70.5911 87.0595 69.2183L71.295 46.8184H79.175L91.7454 65.1913L104.188 46.8184H111.967L96.1522 69.2183Z" fill="white"/>
<path d="M119.17 61.2513V62.3587C119.17 65.2783 120.057 65.8091 123.155 65.8091H130.935V70.8153H123.155C115.541 70.8153 112.575 68.0697 112.575 61.6952V56.1581C112.575 49.1659 115.01 46.8184 123.467 46.8184H135.062C141.926 46.8184 143.83 49.564 143.83 53.3713V61.2513H119.17ZM137.231 53.9021C137.231 52.3097 136.522 51.9115 134.531 51.9115H123.549C120.227 51.9115 119.165 52.2639 119.165 55.7188V57.0001H137.227L137.231 53.9021Z" fill="white"/>
<path d="M148.388 70.8153V56.9132C148.388 49.7425 151.531 46.8184 159.631 46.8184H163.928V52.1769H159.81C156.149 52.1769 154.982 53.1517 154.982 56.959V70.8153H148.388Z" fill="white"/>
<path d="M24.3491 32.4312L6.68554 21.4486V32.4312H-7.62939e-05V2.229H23.6398C32.0964 2.229 35.5376 4.05945 35.5376 11.3034V13.3809C35.5376 20.3778 31.7761 22.1945 23.5437 22.1945H18.2401L35.9449 32.4174L24.3491 32.4312ZM28.8199 11.6695C28.8199 8.43875 27.6256 7.90793 23.196 7.90793H6.68554V17.115H23.196C27.5341 17.115 28.8199 16.5842 28.8199 13.3077V11.6695Z" fill="white"/>
<path d="M50.6432 32.431C41.7428 32.431 39.1344 29.6854 39.1344 22.0753V18.8492C39.1344 11.1934 41.7428 8.44775 50.6432 8.44775H58.6559C67.5975 8.44775 70.2104 11.1934 70.2104 18.895V22.0982C70.2104 29.7128 67.5975 32.4539 58.6559 32.4539L50.6432 32.431ZM63.6118 19.0643C63.6118 14.9916 62.5501 14.1038 57.7727 14.1038H51.5264C46.8359 14.1038 45.7285 14.9916 45.7285 19.0643V21.8969C45.7285 25.8826 46.8359 26.8528 51.5264 26.8528H57.7727C62.5501 26.8528 63.6118 25.8826 63.6118 21.8969V19.0643Z" fill="white"/>
<path d="M86.5881 32.4314C77.6923 32.4314 75.0793 29.6857 75.0793 22.0757V8.43896H81.7192V21.8972C81.7192 25.9699 83.092 26.8119 87.1189 26.8119H94.0242C98.3211 26.8119 99.4285 25.9699 99.4285 21.8972V8.43896H105.977V22.0757C105.977 29.6903 103.369 32.4314 94.3811 32.4314H86.5881Z" fill="white"/>
<path d="M112.443 32.431V13.8155H109.075V8.43861H112.443V1.66602H119.17V8.43861H126.738V13.8155H119.17V32.4493L112.443 32.431Z" fill="white"/>
<path d="M136.302 22.8719V23.9793C136.302 26.8989 137.186 27.4297 140.284 27.4297H148.063V32.4314H140.284C132.674 32.4314 129.704 29.6857 129.704 23.3112V17.7788C129.704 10.7865 132.138 8.43896 140.595 8.43896H152.195C159.059 8.43896 160.958 11.1846 160.958 14.9919V22.8719H136.302ZM154.364 15.5227C154.364 13.9303 153.655 13.5321 151.664 13.5321H140.682C137.359 13.5321 136.298 13.8845 136.298 17.3349V18.6208H154.36L154.364 15.5227Z" fill="white"/>
<path d="M236.266 81.7154L237.671 81.6696L237.584 78.5259L236.157 78.5579C234.601 78.5945 233.04 78.5991 231.53 78.5579H230.661L230.62 81.7291H231.485C233.036 81.7291 234.633 81.7291 236.239 81.7062V80.8414L236.266 81.7154Z" fill="#FF0000"/>
<path d="M221.742 78.0176L220.882 77.9307L220.557 81.079L221.417 81.166C223.147 81.349 224.936 81.4863 226.734 81.587L227.599 81.6327L227.769 78.4752L226.908 78.4249C225.16 78.3379 223.421 78.1915 221.742 78.0176Z" fill="#FF0000"/>
<path d="M209.835 12.7354C210.593 14.1926 211.193 15.7267 211.624 17.3115L211.853 18.1443L214.905 17.3115L214.676 16.4786C214.184 14.677 213.502 12.9328 212.64 11.2756L212.237 10.5068L209.432 11.9712L209.835 12.7354Z" fill="white"/>
<path d="M199.287 52.8636L201.713 54.8954L202.271 54.2319C203.433 52.8591 204.559 51.413 205.57 49.9944L206.078 49.2943L203.511 47.4639L203.003 48.1366C202.033 49.4865 200.967 50.8502 199.841 52.1955L199.287 52.8636Z" fill="white"/>
<path d="M212.105 76.5079L211.258 76.3203L210.586 79.4092L211.423 79.5968C213.125 79.972 214.896 80.3015 216.69 80.5761L217.541 80.7088L218.035 77.5879L217.18 77.4232C215.441 77.1577 213.72 76.842 212.105 76.5079Z" fill="white"/>
<path d="M212.393 21.6224C212.439 22.2173 212.466 22.8122 212.471 23.3979C212.48 24.4676 212.43 25.537 212.32 26.6012L212.228 27.4615L215.372 27.7864L215.464 26.926C215.589 25.7513 215.648 24.5702 215.638 23.3887C215.638 22.7252 215.601 22.0479 215.546 21.3798L215.468 20.5195L212.325 20.7804L212.393 21.6224Z" fill="white"/>
<path d="M205.291 74.6498C204.44 74.3752 203.593 74.0824 202.765 73.7849L201.95 73.4829L200.866 76.4574L201.676 76.7548C202.541 77.0706 203.429 77.3772 204.316 77.67C205.131 77.9309 205.964 78.1825 206.797 78.4159L207.62 78.6493L208.49 75.6062L207.661 75.3637C206.861 75.1349 206.064 74.9015 205.291 74.6498Z" fill="white"/>
<path d="M212.919 36.9389C213.276 36.0466 213.597 35.1451 213.88 34.2665C214.164 33.3879 214.393 32.5688 214.603 31.7359L214.814 30.8985L211.743 30.1343L211.533 30.9717C211.341 31.7359 211.121 32.5184 210.869 33.2872C210.608 34.1063 210.306 34.9392 209.954 35.7674L209.634 36.5728L212.576 37.7397L212.919 36.9389Z" fill="#FF0000"/>
<path d="M164.322 76.7869C162.725 77.4093 161.082 77.995 159.443 78.5442L158.624 78.8141L159.622 81.8206L160.446 81.5461C162.134 80.9832 163.823 80.3746 165.479 79.7385L166.285 79.4228L165.145 76.4712L164.322 76.7869Z" fill="white"/>
<path d="M208.119 39.8993C207.382 41.35 206.527 42.8463 205.589 44.3427L205.131 45.0749L207.808 46.7589L208.266 46.0267C209.259 44.4434 210.156 42.8646 210.938 41.3408L211.327 40.572L208.517 39.126L208.119 39.8993Z" fill="white"/>
<path d="M193.961 69.763L193.206 69.3374L191.655 72.0831L192.414 72.5041C193.979 73.3872 195.617 74.2018 197.233 74.9385L198.02 75.2909L199.319 72.4034L198.528 72.0465C196.967 71.36 195.43 70.5867 193.961 69.763Z" fill="white"/>
<path d="M169.959 36.1784C169.799 34.5056 169.75 32.824 169.813 31.1447L169.845 30.2798L166.683 30.1562L166.651 31.0166C166.583 32.8409 166.637 34.6677 166.811 36.485L166.893 37.3453L170.042 37.0478L169.959 36.1784Z" fill="white"/>
<path d="M155.037 79.9125C153.389 80.3701 151.701 80.8277 150.003 81.2258L149.166 81.4272L149.893 84.5069L150.74 84.3056C152.46 83.8937 154.199 83.4361 155.892 82.9327L156.725 82.6948L155.851 79.6562L155.037 79.9125Z" fill="white"/>
<path d="M196.789 55.6181C195.617 56.8445 194.386 58.0572 193.128 59.2287L192.487 59.8144L194.638 62.1391L195.269 61.5533C196.592 60.3407 197.878 59.0776 199.095 57.7963L199.695 57.1694L197.407 54.9912L196.789 55.6181Z" fill="white"/>
<path d="M135.817 83.6646C134.124 83.8476 132.404 83.9895 130.642 84.1222L129.782 84.1817L130.001 87.3437L130.866 87.2797L131.598 87.2293C133.131 87.1149 134.66 86.9731 136.174 86.8129L137.039 86.7168L136.691 83.5776L135.817 83.6646Z" fill="white"/>
<path d="M170.266 26.6739C170.536 25.0446 170.924 23.4372 171.428 21.8644L171.694 21.0407L170.897 20.7113L168.715 20.002L168.445 20.8165C167.88 22.5667 167.446 24.3562 167.145 26.1705L167.008 27.0217L170.138 27.5433L170.266 26.6739Z" fill="white"/>
<path d="M145.5 82.2006C143.816 82.5301 142.096 82.8275 140.389 83.0792L139.529 83.2028L139.986 86.3374L140.842 86.2093C142.594 85.953 144.361 85.6464 146.095 85.2941L146.946 85.1293L146.342 82.0176L145.5 82.2006Z" fill="#FF0000"/>
<path d="M110.956 84.1682L110.095 84.1133L109.903 87.2754L110.768 87.3257C112.543 87.431 114.328 87.5087 116.072 87.5637H116.937L117.023 84.4016L116.163 84.3741C114.452 84.3467 112.704 84.2872 110.956 84.1682Z" fill="white"/>
<path d="M101.135 83.3078L100.275 83.2163L99.9183 86.3601L100.779 86.4562C102.549 86.6575 104.325 86.8314 106.055 86.9824L106.92 87.0511L107.185 83.9027L106.325 83.8249C104.622 83.6831 102.87 83.5092 101.135 83.3078Z" fill="white"/>
<path d="M173.122 17.668C173.85 16.1739 174.706 14.7454 175.68 13.3985L176.192 12.6984L173.629 10.8359L173.117 11.5269C172.04 13.023 171.091 14.6074 170.28 16.2632L169.9 17.0411L172.742 18.4139L173.122 17.668Z" fill="white"/>
<path d="M126.002 84.3654C124.295 84.4248 122.542 84.4569 120.799 84.4615H119.934V87.6281H120.794C122.574 87.6281 124.363 87.5961 126.112 87.532L126.972 87.5L126.857 84.3379L126.002 84.3654Z" fill="white"/>
<path d="M181.752 67.9687C180.319 68.8839 178.832 69.7991 177.327 70.6457L176.572 71.0667L178.132 73.8124L178.882 73.3914C180.415 72.5265 181.953 71.5975 183.459 70.6457L184.186 70.1881L182.493 67.502L181.752 67.9687Z" fill="white"/>
<path d="M180.37 63.5711L180.988 64.1797L183.198 61.8917L182.585 61.2922C181.368 60.1077 180.216 58.8582 179.134 57.549L178.581 56.8809L176.142 58.9035L176.695 59.567C177.85 60.9646 179.076 62.3011 180.37 63.5711Z" fill="white"/>
<path d="M207.428 9.12968L207.986 9.79321L210.412 7.75228L209.853 7.08874C208.632 5.63032 207.214 4.34895 205.639 3.28145L204.916 2.79639L203.154 5.42763L203.868 5.90812C205.198 6.81153 206.397 7.8958 207.428 9.12968Z" fill="white"/>
<path d="M200.07 4.03153L200.884 4.30152L201.891 1.29961L201.063 1.02962C199.252 0.440759 197.369 0.106562 195.466 0.0366165L194.601 0L194.482 3.16666L195.352 3.19411C196.956 3.25195 198.544 3.53382 200.07 4.03153Z" fill="white"/>
<path d="M169.392 47.3625L172.366 46.2689L172.064 45.4497C171.487 43.8723 171.016 42.2579 170.655 40.6174L170.472 39.7754L167.392 40.4435L167.575 41.2946C167.964 43.0786 168.475 44.8338 169.104 46.548L169.392 47.3625Z" fill="white"/>
<path d="M178.562 10.0672C179.75 8.9214 181.046 7.89451 182.434 7.00125L183.161 6.54364L181.45 3.88037L180.722 4.33798C179.16 5.34608 177.7 6.50313 176.361 7.79292L175.743 8.39238L177.935 10.6804L178.562 10.0672Z" fill="white"/>
<path d="M191.311 0.260742L190.455 0.416327C188.62 0.75992 186.826 1.29995 185.106 2.0271L184.324 2.37489L185.55 5.28985L186.342 4.95581C187.856 4.32102 189.433 3.84559 191.046 3.53722L191.897 3.37705L191.311 0.260742Z" fill="white"/>
<path d="M173.263 72.8153C171.739 73.5841 170.165 74.3254 168.582 75.0256L167.79 75.3733L169.067 78.27L169.859 77.9176C171.492 77.1992 173.117 76.435 174.691 75.6296L175.464 75.236L174.036 72.4126L173.263 72.8153Z" fill="white"/>
<path d="M173.478 48.8042L170.65 50.2319L171.044 51.0053C171.865 52.6251 172.782 54.1944 173.789 55.7049L174.275 56.4234L176.901 54.6662L176.444 53.9477C175.505 52.543 174.651 51.0837 173.886 49.5776L173.478 48.8042Z" fill="white"/>
<path d="M183.285 66.2575L183.985 66.7929C185.358 67.9095 186.822 69.0123 188.319 69.9962L189.014 70.4538L190.016 68.9894L190.762 67.8591L190.794 67.8225L185.303 63.7544L183.285 66.2575Z" fill="white"/>
<path d="M235.287 52.6161C233.025 52.6618 230.873 53.6027 229.303 55.2325C227.733 56.8624 226.874 59.0481 226.913 61.3107V61.4205C227.151 69.36 235.749 76.064 235.749 76.064C235.749 76.064 244.078 69.0305 243.986 61.091V60.9766C243.937 58.7158 242.994 56.5666 241.364 54.9997C239.733 53.4327 237.548 52.5756 235.287 52.6161ZM235.576 67.2184C234.378 67.2399 233.201 66.9059 232.193 66.2586C231.185 65.6113 230.392 64.6798 229.913 63.5818C229.434 62.4838 229.292 61.2685 229.504 60.0896C229.715 58.9106 230.272 57.8209 231.103 56.958C231.934 56.0952 233.001 55.4981 234.172 55.242C235.342 54.9859 236.562 55.0824 237.677 55.5193C238.792 55.9562 239.753 56.7139 240.438 57.6967C241.123 58.6794 241.501 59.8431 241.524 61.0407C241.54 61.837 241.398 62.6284 241.107 63.3699C240.816 64.1113 240.382 64.7882 239.83 65.3619C239.277 65.9356 238.617 66.3948 237.887 66.7134C237.157 67.0319 236.372 67.2035 235.576 67.2184Z" fill="#FF0000"/>
<path d="M95.96 85.8569L84.4283 90.8906C84.1587 91.0078 83.8603 91.0424 83.5709 90.9901C83.2816 90.9378 83.0142 90.8008 82.8027 90.5966C82.5911 90.3924 82.4448 90.1301 82.3823 89.8427C82.3198 89.5554 82.3439 89.256 82.4515 88.9823L84.6983 83.2485C84.7797 83.0405 84.8141 82.817 84.799 82.5941L84.3414 76.453C84.3176 76.1601 84.3815 75.8668 84.5248 75.6102C84.6681 75.3537 84.8844 75.1455 85.1462 75.0121C85.4081 74.8787 85.7037 74.8262 85.9954 74.8611C86.2872 74.896 86.562 75.0169 86.785 75.2083L96.3352 83.372C96.5247 83.5363 96.6695 83.7459 96.7563 83.9811C96.843 84.2164 96.8689 84.4698 96.8314 84.7177C96.794 84.9657 96.6945 85.2001 96.5421 85.3993C96.3897 85.5984 96.1895 85.7558 95.96 85.8569Z" fill="url(#paint0_linear_10_616)"/>
</g>
<defs>
<linearGradient id="paint0_linear_10_616" x1="81.5405" y1="82.1194" x2="95.0578" y2="88.9539" gradientUnits="userSpaceOnUse">
<stop stop-color="#46FF90"/>
<stop offset="1" stop-color="#FCFA47"/>
</linearGradient>
<clipPath id="clip0_10_616">
<rect width="244" height="91" fill="white"/>
</clipPath>
</defs>
</svg>
