<svg width="192" height="72" viewBox="0 0 192 72" fill="none" xmlns="http://www.w3.org/2000/svg">
<g clip-path="url(#clip0_1_130)">
<path d="M19.0811 55.4937L5.23911 46.8872V55.4937H-6.10352e-05V31.826H18.5253C25.1523 31.826 27.8489 33.2604 27.8489 38.9371V40.5902C27.8489 46.0696 24.9012 47.4933 18.45 47.4933H14.2938L28.1681 55.508L19.0811 55.4937ZM22.5847 39.2203C22.5847 36.6886 21.6487 36.2726 18.1775 36.2726H5.23911V43.4877H18.1775C21.577 43.4877 22.5847 43.0717 22.5847 40.5041V39.2203Z" fill="white"/>
<path d="M39.6864 55.494C32.7116 55.494 30.6676 53.3424 30.6676 47.3753V44.8435C30.6676 38.8405 32.7116 36.6889 39.6864 36.6889H45.9656C52.9726 36.6889 55.0202 38.8405 55.0202 44.8758V47.386C55.0202 53.3532 52.9726 55.5048 45.9656 55.5048L39.6864 55.494ZM49.8492 45.0157C49.8492 41.8241 49.0173 41.1284 45.2735 41.1284H40.3785C36.7029 41.1284 35.8351 41.8241 35.8351 45.0157V47.2354C35.8351 50.3588 36.7029 51.1226 40.3785 51.1226H45.2735C49.0173 51.1226 49.8492 50.3588 49.8492 47.2354V45.0157Z" fill="white"/>
<path d="M75.3494 54.2425C74.5856 55.286 73.6497 56.014 71.81 56.014C69.9023 56.014 69.0022 55.3183 68.224 54.2425L55.8702 36.6889H62.0453L71.8961 51.0868L81.6465 36.6889H87.7427L75.3494 54.2425Z" fill="white"/>
<path d="M93.387 47.9992V48.867C93.387 51.1549 94.0826 51.5709 96.5104 51.5709H102.607V55.494H96.5104C90.5433 55.494 88.2195 53.3424 88.2195 48.3471V44.008C88.2195 38.5286 90.1273 36.6889 96.7542 36.6889H105.841C111.22 36.6889 112.712 38.8405 112.712 41.8241V47.9992H93.387ZM107.541 42.2401C107.541 40.9921 106.985 40.6802 105.425 40.6802H96.8188C94.2153 40.6802 93.3834 40.9563 93.3834 43.6637V44.6678H107.537L107.541 42.2401Z" fill="white"/>
<path d="M116.284 55.494V44.5997C116.284 38.9804 118.747 36.6889 125.095 36.6889H128.462V40.8881H125.234C122.366 40.8881 121.451 41.652 121.451 44.6355V55.494H116.284Z" fill="white"/>
<path d="M19.0811 25.4146L5.23911 16.8082V25.4146H-6.10352e-05V1.74693H18.5253C25.1523 1.74693 27.8489 3.18135 27.8489 8.85801V10.4861C27.8489 15.9691 24.9012 17.3927 18.45 17.3927H14.2938L28.1681 25.4039L19.0811 25.4146ZM22.5847 9.14489C22.5847 6.61316 21.6487 6.19718 18.1775 6.19718H5.23911V13.4122H18.1775C21.577 13.4122 22.5847 12.9963 22.5847 10.4287V9.14489Z" fill="white"/>
<path d="M39.6864 25.4142C32.7116 25.4142 30.6676 23.2626 30.6676 17.2991V14.771C30.6676 8.77155 32.7116 6.61993 39.6864 6.61993H45.9656C52.9726 6.61993 55.0202 8.77155 55.0202 14.8068V17.317C55.0202 23.2842 52.9726 25.4322 45.9656 25.4322L39.6864 25.4142ZM49.8492 14.9395C49.8492 11.7479 49.0173 11.0523 45.2735 11.0523H40.3785C36.7029 11.0523 35.8351 11.7479 35.8351 14.9395V17.1592C35.8351 20.2827 36.7029 21.0429 40.3785 21.0429H45.2735C49.0173 21.0429 49.8492 20.2827 49.8492 17.1592V14.9395Z" fill="white"/>
<path d="M67.8546 25.4145C60.8833 25.4145 58.8357 23.2629 58.8357 17.2993V6.613H64.039V17.1595C64.039 20.351 65.1148 21.0109 68.2705 21.0109H73.6818C77.0491 21.0109 77.9169 20.351 77.9169 17.1595V6.613H83.0485V17.2993C83.0485 23.2665 81.0045 25.4145 73.9616 25.4145H67.8546Z" fill="white"/>
<path d="M88.1156 25.4142V10.8263H85.4763V6.61274H88.1156V1.30544H93.387V6.61274H99.3183V10.8263H93.387V25.4286L88.1156 25.4142Z" fill="white"/>
<path d="M106.813 17.9233V18.7911C106.813 21.079 107.505 21.495 109.933 21.495H116.029V25.4145H109.933C103.969 25.4145 101.642 23.2629 101.642 18.2676V13.9321C101.642 8.45263 103.55 6.613 110.177 6.613H119.267C124.646 6.613 126.135 8.76461 126.135 11.7482V17.9233H106.813ZM120.967 12.1642C120.967 10.9162 120.411 10.6042 118.851 10.6042H110.245C107.641 10.6042 106.809 10.8804 106.809 13.5842V14.5919H120.963L120.967 12.1642Z" fill="white"/>
<path d="M185.15 64.0358L186.251 64L186.182 61.5364L185.064 61.5615C183.844 61.5902 182.622 61.5937 181.438 61.5615H180.757L180.725 64.0466H181.402C182.618 64.0466 183.869 64.0466 185.128 64.0286V63.3509L185.15 64.0358Z" fill="#FF0000"/>
<path d="M173.768 61.138L173.093 61.0699L172.839 63.5371L173.513 63.6052C174.868 63.7487 176.271 63.8562 177.68 63.9351L178.358 63.971L178.49 61.4966L177.816 61.4572C176.446 61.3891 175.084 61.2743 173.768 61.138Z" fill="#FF0000"/>
<path d="M164.437 9.98003C165.031 11.122 165.501 12.3242 165.839 13.5661L166.018 14.2187L168.41 13.5661L168.231 12.9134C167.845 11.5015 167.31 10.1347 166.635 8.83609L166.319 8.23363L164.121 9.38116L164.437 9.98003Z" fill="white"/>
<path d="M156.171 41.4261L158.072 43.0183L158.509 42.4983C159.42 41.4225 160.302 40.2893 161.095 39.1776L161.493 38.629L159.481 37.1946L159.083 37.7217C158.323 38.7796 157.487 39.8482 156.605 40.9025L156.171 41.4261Z" fill="white"/>
<path d="M166.215 59.9549L165.552 59.8079L165.025 62.2284L165.681 62.3755C167.015 62.6695 168.403 62.9277 169.809 63.1429L170.476 63.2469L170.863 60.8012L170.192 60.6721C168.83 60.4641 167.481 60.2167 166.215 59.9549Z" fill="white"/>
<path d="M166.441 16.9444C166.477 17.4106 166.499 17.8768 166.502 18.3358C166.51 19.1741 166.47 20.0121 166.384 20.846L166.312 21.5202L168.776 21.7748L168.848 21.1006C168.946 20.18 168.992 19.2545 168.984 18.3286C168.984 17.8086 168.955 17.2779 168.912 16.7544L168.851 16.0802L166.388 16.2846L166.441 16.9444Z" fill="white"/>
<path d="M160.876 58.4989C160.209 58.2837 159.545 58.0542 158.896 57.8211L158.258 57.5845L157.408 59.9154L158.043 60.1485C158.721 60.3959 159.416 60.6362 160.112 60.8657C160.75 61.0701 161.403 61.2673 162.056 61.4502L162.701 61.6331L163.382 59.2484L162.733 59.0583C162.106 58.879 161.482 58.6961 160.876 58.4989Z" fill="white"/>
<path d="M166.854 28.947C167.133 28.2477 167.384 27.5413 167.607 26.8528C167.829 26.1643 168.008 25.5224 168.173 24.8697L168.338 24.2135L165.932 23.6146L165.767 24.2708C165.617 24.8697 165.444 25.4829 165.247 26.0854C165.043 26.7273 164.806 27.3799 164.53 28.029L164.279 28.6601L166.585 29.5746L166.854 28.947Z" fill="#FF0000"/>
<path d="M128.77 60.1736C127.519 60.6613 126.231 61.1203 124.948 61.5506L124.306 61.7622L125.087 64.1182L125.733 63.903C127.056 63.4619 128.379 62.985 129.677 62.4865L130.309 62.2391L129.416 59.9261L128.77 60.1736Z" fill="white"/>
<path d="M163.092 31.2667C162.515 32.4035 161.844 33.5761 161.109 34.7488L160.75 35.3225L162.848 36.6422L163.207 36.0684C163.985 34.8277 164.688 33.5905 165.301 32.3963L165.606 31.7939L163.404 30.6607L163.092 31.2667Z" fill="white"/>
<path d="M151.997 54.6694L151.405 54.3359L150.19 56.4875L150.785 56.8175C152.011 57.5096 153.295 58.1479 154.561 58.7252L155.178 59.0013L156.196 56.7386L155.576 56.4588C154.353 55.9209 153.148 55.3149 151.997 54.6694Z" fill="white"/>
<path d="M133.188 28.3511C133.063 27.0402 133.024 25.7225 133.073 24.4065L133.099 23.7288L130.621 23.6319L130.596 24.3061C130.542 25.7357 130.584 27.1673 130.721 28.5914L130.786 29.2656L133.253 29.0325L133.188 28.3511Z" fill="white"/>
<path d="M121.494 62.6229C120.203 62.9815 118.88 63.3401 117.55 63.6521L116.893 63.8099L117.463 66.2233L118.127 66.0655C119.475 65.7428 120.838 65.3842 122.165 64.9897L122.817 64.8032L122.132 62.4221L121.494 62.6229Z" fill="white"/>
<path d="M154.213 43.5847C153.295 44.5458 152.33 45.4961 151.344 46.4141L150.842 46.8731L152.528 48.6948L153.022 48.2358C154.059 47.2855 155.067 46.2957 156.02 45.2917L156.49 44.8004L154.697 43.0934L154.213 43.5847Z" fill="white"/>
<path d="M106.433 65.5633C105.106 65.7068 103.758 65.8179 102.377 65.9219L101.703 65.9685L101.875 68.4465L102.553 68.3963L103.127 68.3568C104.328 68.2672 105.526 68.156 106.713 68.0305L107.39 67.9552L107.118 65.4952L106.433 65.5633Z" fill="white"/>
<path d="M133.429 20.9028C133.64 19.626 133.945 18.3664 134.339 17.1339L134.547 16.4884L133.923 16.2302L132.213 15.6744L132.001 16.3127C131.559 17.6842 131.218 19.0866 130.983 20.5084L130.875 21.1754L133.328 21.5842L133.429 20.9028Z" fill="white"/>
<path d="M114.021 64.4158C112.701 64.674 111.353 64.907 110.015 65.1043L109.341 65.2011L109.7 67.6575L110.37 67.5571C111.744 67.3563 113.128 67.116 114.487 66.8399L115.154 66.7108L114.681 64.2723L114.021 64.4158Z" fill="#FF0000"/>
<path d="M86.9501 65.9578L86.2759 65.9148L86.1253 68.3928L86.8031 68.4322C88.1944 68.5147 89.593 68.5756 90.9593 68.6187H91.637L91.7051 66.1407L91.031 66.1192C89.6898 66.0977 88.32 66.0511 86.9501 65.9578Z" fill="white"/>
<path d="M79.2546 65.2836L78.5804 65.2118L78.3007 67.6754L78.9749 67.7507C80.3627 67.9085 81.754 68.0448 83.1096 68.1631L83.7873 68.2169L83.9953 65.7497L83.3211 65.6888C81.9871 65.5776 80.6137 65.4413 79.2546 65.2836Z" fill="white"/>
<path d="M135.666 13.8456C136.237 12.6747 136.908 11.5553 137.671 10.4998L138.072 9.95117L136.064 8.49166L135.663 9.03315C134.818 10.2055 134.075 11.4471 133.439 12.7447L133.142 13.3543L135.369 14.4301L135.666 13.8456Z" fill="white"/>
<path d="M98.741 66.1122C97.4034 66.1588 96.0299 66.1839 94.6637 66.1875H93.9859V68.669H94.6601C96.055 68.669 97.4572 68.6439 98.827 68.5937L99.5012 68.5686L99.4115 66.0907L98.741 66.1122Z" fill="white"/>
<path d="M142.429 53.2631C141.307 53.9803 140.141 54.6975 138.962 55.361L138.37 55.6909L139.593 57.8425L140.181 57.5126C141.382 56.8348 142.587 56.1068 143.767 55.361L144.337 55.0024L143.01 52.8974L142.429 53.2631Z" fill="white"/>
<path d="M141.346 49.8171L141.83 50.294L143.563 48.501L143.082 48.0312C142.128 47.103 141.226 46.1238 140.378 45.0979L139.944 44.5743L138.033 46.1593L138.467 46.6793C139.372 47.7745 140.333 48.8218 141.346 49.8171Z" fill="white"/>
<path d="M162.551 7.15424L162.988 7.6742L164.889 6.07484L164.451 5.55487C163.494 4.41199 162.382 3.40785 161.148 2.57131L160.582 2.19119L159.201 4.25315L159.761 4.62968C160.803 5.33763 161.742 6.18731 162.551 7.15424Z" fill="white"/>
<path d="M156.784 3.15933L157.422 3.37091L158.211 1.01848L157.562 0.806907C156.144 0.345451 154.667 0.0835601 153.177 0.0287477L152.499 5.34058e-05L152.406 2.48158L153.087 2.5031C154.344 2.54842 155.588 2.76931 156.784 3.15933Z" fill="white"/>
<path d="M132.744 37.1154L135.075 36.2584L134.838 35.6165C134.385 34.3803 134.016 33.1152 133.733 31.8296L133.59 31.1698L131.177 31.6934L131.32 32.3604C131.625 33.7583 132.025 35.1338 132.518 36.4771L132.744 37.1154Z" fill="white"/>
<path d="M139.93 7.88916C140.86 6.99124 141.876 6.18652 142.964 5.48653L143.534 5.12792L142.193 3.04087L141.623 3.39947C140.399 4.18946 139.254 5.09618 138.205 6.10691L137.721 6.57668L139.439 8.36969L139.93 7.88916Z" fill="white"/>
<path d="M149.921 0.204323L149.25 0.326246C147.811 0.5955 146.406 1.01869 145.058 1.58852L144.445 1.86106L145.406 4.14535L146.026 3.88358C147.213 3.38613 148.449 3.01357 149.713 2.77191L150.38 2.6464L149.921 0.204323Z" fill="white"/>
<path d="M135.777 57.0611C134.583 57.6636 133.35 58.2445 132.109 58.7932L131.488 59.0657L132.489 61.3357L133.109 61.0595C134.389 60.4965 135.663 59.8977 136.896 59.2665L137.502 58.9581L136.383 56.7455L135.777 57.0611Z" fill="white"/>
<path d="M135.946 38.2451L133.73 39.3639L134.038 39.9699C134.681 41.2392 135.4 42.4691 136.19 43.6528L136.57 44.2158L138.628 42.8387L138.27 42.2757C137.534 41.175 136.865 40.0314 136.265 38.8511L135.946 38.2451Z" fill="white"/>
<path d="M143.631 51.9221L144.179 52.3417C145.255 53.2167 146.403 54.0809 147.575 54.8519L148.121 55.2105L148.906 54.063L149.49 53.1772L149.515 53.1485L145.212 49.9606L143.631 51.9221Z" fill="white"/>
<path d="M184.382 41.2321C182.609 41.268 180.923 42.0053 179.693 43.2825C178.463 44.5597 177.789 46.2726 177.82 48.0456V48.1316C178.006 54.3534 184.744 59.6069 184.744 59.6069C184.744 59.6069 191.271 54.0952 191.199 47.8734V47.7838C191.161 46.0121 190.422 44.3279 189.144 43.1C187.866 41.8721 186.154 41.2004 184.382 41.2321ZM184.608 52.6751C183.67 52.692 182.747 52.4302 181.957 51.923C181.168 51.4157 180.546 50.6858 180.171 49.8253C179.796 48.9649 179.684 48.0125 179.85 47.0887C180.016 46.1648 180.452 45.3108 181.103 44.6347C181.754 43.9585 182.591 43.4906 183.508 43.2899C184.425 43.0892 185.381 43.1648 186.255 43.5072C187.129 43.8496 187.882 44.4434 188.418 45.2135C188.955 45.9836 189.251 46.8955 189.27 47.834C189.282 48.458 189.171 49.0782 188.943 49.6593C188.715 50.2403 188.375 50.7707 187.942 51.2203C187.509 51.6699 186.992 52.0297 186.42 52.2794C185.848 52.529 185.232 52.6635 184.608 52.6751Z" fill="#FF0000"/>
<path d="M75.1988 67.2811L66.1621 71.2257C65.9507 71.3176 65.7169 71.3447 65.4902 71.3037C65.2634 71.2627 65.0539 71.1554 64.8881 70.9954C64.7223 70.8354 64.6077 70.6298 64.5587 70.4046C64.5097 70.1794 64.5286 69.9448 64.6129 69.7304L66.3736 65.2371C66.4374 65.0741 66.4644 64.8989 66.4525 64.7243L66.0939 59.9118C66.0753 59.6823 66.1253 59.4524 66.2376 59.2514C66.3499 59.0503 66.5195 58.8872 66.7247 58.7827C66.9299 58.6782 67.1615 58.637 67.3901 58.6644C67.6188 58.6917 67.8341 58.7864 68.0089 58.9365L75.4929 65.3339C75.6413 65.4626 75.7548 65.6268 75.8228 65.8112C75.8908 65.9956 75.9111 66.1941 75.8817 66.3884C75.8524 66.5827 75.7744 66.7665 75.655 66.9225C75.5356 67.0786 75.3787 67.2019 75.1988 67.2811Z" fill="url(#paint0_linear_1_130)"/>
</g>
<defs>
<linearGradient id="paint0_linear_1_130" x1="63.899" y1="64.3523" x2="74.4918" y2="69.7082" gradientUnits="userSpaceOnUse">
<stop stop-color="#46FF90"/>
<stop offset="1" stop-color="#FCFA47"/>
</linearGradient>
<clipPath id="clip0_1_130">
<rect width="191.21" height="71.3115" fill="white"/>
</clipPath>
</defs>
</svg>
